Coordinates
version=1
nRows=25
nColumns=33
inDegrees=yes

Units are S.I. units (second, meters, Newtons, ...)
Angles are in degrees.

endheader
time	ground_thorax_rot_x	ground_thorax_rot_y	ground_thorax_rot_z	ground_thorax_tx	ground_thorax_ty	ground_thorax_tz	clav_prot_r	clav_elev_r	scapula_abduction_r	scapula_elevation_r	scapula_upward_rot_r	scapula_winging_r	shoulder_elv_r	plane_of_elev_r	axial_rot_r	elbow_flexion_r	pro_sup_r	wrist_flex_r	wrist_dev_r	clav_prot_l	clav_elev_l	scapula_abduction_l	scapula_elevation_l	scapula_upward_rot_l	scapula_winging_l	shoulder_elv_l	plane_of_elev_l	axial_rot_l	elbow_flexion_l	pro_sup_l	wrist_flex_l	wrist_dev_l	
6.7100	-41.675426	-4.671674	3.687156	-178.775684	905.136385	-6.238384	9.727377	-45.000000	40.634538	-45.000000	-28.854533	3499.821031	-2266.316246	148.075512	-98.238047	18.373954	74.021427	17.376618	3.337466	15.221723	39.484916	-41.478444	-45.000000	-40.921503	-2431.897512	-454.289930	138.287676	164.675566	12.959811	46.717160	5.981920	-23.203803	
6.7200	-41.751878	-4.506163	3.506172	-175.641566	905.320721	-6.220163	9.620146	-45.000000	40.921883	-45.000000	-27.711441	3499.925453	-2266.287139	148.063003	-98.402878	18.481174	75.097381	17.279860	3.269706	15.192577	39.661402	-41.685024	-45.000000	-40.220276	-2431.846878	-454.303180	138.224579	165.053073	12.836873	45.764449	6.169951	-23.255646	
6.7300	-41.834652	-4.354344	3.339659	-172.442114	905.248433	-6.190394	9.496787	-45.000000	41.201019	-45.000000	-26.565486	3500.043196	-2266.285219	148.073916	-98.544897	18.585245	76.152151	17.186603	3.211395	15.203954	39.844149	-41.898736	-45.000000	-39.540501	-2431.815771	-454.339070	138.171255	165.424949	12.682130	44.562686	6.398263	-23.300090	
6.7400	-41.917213	-4.212225	3.184870	-169.178832	904.916942	-6.146549	9.352494	-45.000000	41.465193	-45.000000	-25.401128	3500.170003	-2266.302174	148.107989	-98.660586	18.690805	77.203526	17.101753	3.161266	15.272680	40.035463	-42.122377	-45.000000	-38.885598	-2431.819541	-454.402556	138.138526	165.796330	12.492704	43.073219	6.667197	-23.333362	
6.7500	-41.999896	-4.079552	3.035678	-165.853419	904.327101	-6.087226	9.194513	-45.000000	41.722563	-45.000000	-24.239527	3500.306777	-2266.345814	148.160592	-98.762463	18.796461	78.254140	17.023273	3.119476	15.378176	40.234459	-42.349618	-45.000000	-38.245364	-2431.845631	-454.492370	138.115913	166.156083	12.271787	41.276039	6.984489	-23.354844	
6.7600	-42.077575	-3.950706	2.888402	-162.468282	903.482257	-6.012000	9.024206	-45.000000	41.969882	-45.000000	-23.078937	3500.447545	-2266.413474	148.225929	-98.857335	18.901559	79.303143	16.952270	3.085125	15.515499	40.441486	-42.579577	-45.000000	-37.612418	-2431.902235	-454.607743	138.108449	166.500625	12.018781	39.141633	7.356097	-23.363490	
6.7700	-42.149658	-3.827715	2.738226	-159.027185	902.387475	-5.921183	8.856716	-45.000000	42.211013	-45.000000	-21.951377	3500.592716	-2266.515341	148.290483	-98.945331	19.000086	80.333342	16.875046	3.056764	15.639686	40.643664	-42.798863	-45.000000	-36.982129	-2431.980376	-454.741995	138.102235	166.823561	11.740317	36.680703	7.793843	-23.360397	
6.7800	-42.211994	-3.715387	2.593451	-155.535616	901.048652	-5.815587	8.686337	-45.000000	42.445161	-45.000000	-20.845066	3500.741719	-2266.645363	148.362795	-99.027100	19.090652	81.336097	16.802310	3.036977	15.778448	40.845969	-43.011638	-44.999999	-36.370498	-2432.085289	-454.897531	138.102438	167.136653	11.439440	33.916608	8.283510	-23.332513	
6.7900	-42.263942	-3.623439	2.459094	-152.000856	899.472011	-5.696322	8.531380	-45.000000	42.676097	-45.000000	-19.807796	3500.895968	-2266.807547	148.430829	-99.117692	19.169810	82.286196	16.724675	3.024423	15.887525	41.035073	-43.209385	-44.999999	-35.794226	-2432.203943	-455.069984	138.090848	167.444133	11.125728	30.934763	8.822674	-23.279999	
6.8000	-42.303371	-3.555637	2.342993	-148.431933	897.663790	-5.564639	8.387212	-45.000000	42.902966	-45.000000	-18.842469	3501.057909	-2266.994851	148.501101	-99.232276	19.237608	83.164377	16.652155	3.020958	15.982960	41.219416	-43.397239	-44.999998	-35.258869	-2432.336552	-455.264655	138.073008	167.741419	10.809374	27.836924	9.386058	-23.195541	
6.8100	-42.329629	-3.515921	2.244434	-144.839236	895.630244	-5.421755	8.269029	-45.000000	43.126209	-45.000000	-17.988742	3501.228973	-2267.207421	148.557774	-99.386983	19.291939	83.939330	16.575060	3.023874	16.020232	41.388520	-43.564785	-44.999996	-34.763651	-2432.473737	-455.480245	138.036687	168.018460	10.504476	24.753752	9.962961	-23.086406	
6.8200	-42.343994	-3.497103	2.163065	-141.234018	893.377847	-5.268682	8.160735	-45.000000	43.345420	-45.000000	-17.216449	3501.410138	-2267.442930	148.614879	-99.589246	19.332764	84.596151	16.511453	3.036927	16.050617	41.556495	-43.720950	-44.999993	-34.303858	-2432.621403	-455.718959	137.993897	168.277875	10.220282	21.780872	10.522064	-22.944434	
6.8300	-42.346950	-3.497486	2.099241	-137.627361	890.913553	-5.106032	8.063000	-45.000000	43.558525	-45.000000	-16.528486	3501.600294	-2267.700705	148.670102	-99.840001	19.359193	85.121168	16.460565	3.059622	16.072681	41.718655	-43.863377	-44.999988	-33.882652	-2432.781359	-455.977359	137.942078	168.526850	9.961820	18.997578	11.050451	-22.774928	
6.8400	-42.339372	-3.505506	2.045926	-134.029799	888.245134	-4.933938	7.968955	-45.000000	43.760545	-45.000000	-15.902402	3501.796937	-2267.983097	148.724511	-100.131654	19.370658	85.505733	16.424513	3.092016	16.106368	41.875464	-43.995295	-44.999978	-33.495395	-2432.965057	-456.247984	137.888842	168.775479	9.730196	16.443901	11.538791	-22.582178	
6.8500	-42.321976	-3.514741	2.000313	-130.450573	885.381309	-4.752085	7.876641	-45.000000	43.948825	-45.000000	-15.324071	3501.994817	-2268.291986	148.777689	-100.455112	19.364797	85.741127	16.400169	3.133978	16.159116	42.021841	-44.119346	-44.999961	-33.149846	-2433.179435	-456.524074	137.833906	169.047952	9.523407	14.130528	11.988851	-22.373022	
6.8600	-42.296477	-3.520965	1.958407	-126.897718	882.332029	-4.559895	7.785362	-45.000000	44.122147	-45.000000	-14.785674	3502.192766	-2268.628542	148.830294	-100.810582	19.341188	85.813670	16.388689	3.185871	16.238129	42.157085	-44.236530	-44.999930	-32.848508	-2433.428964	-456.799448	137.778302	169.362231	9.338519	12.057793	12.402001	-22.152843	
6.8700	-42.263298	-3.532127	1.926945	-123.377966	879.108544	-4.356717	7.698490	-45.000000	44.281639	-45.000000	-14.300569	3502.392639	-2268.986115	148.882481	-101.203821	19.297076	85.703689	16.390041	3.248683	16.334843	42.280452	-44.346203	-44.999875	-32.602562	-2433.708902	-457.074839	137.716070	169.728606	9.170585	10.232168	12.778544	-21.927864	
6.8800	-42.223065	-3.552893	1.905812	-119.897310	875.723735	-4.141970	7.616680	-45.000000	44.427884	-45.000000	-13.880076	3502.601635	-2269.359026	148.934410	-101.642064	19.231037	85.388935	16.408866	3.323970	16.446584	42.394680	-44.445682	-44.999776	-32.413994	-2434.015998	-457.350183	137.644556	170.148352	9.014239	8.658487	13.116656	-21.703345	
6.8900	-42.176766	-3.589451	1.900494	-116.461290	872.192329	-3.915101	7.540992	-45.000000	44.560631	-45.000000	-13.535120	3502.823242	-2269.740582	148.986669	-102.127984	19.141429	84.848316	16.448330	3.413325	16.569208	42.499633	-44.534640	-44.999599	-32.290202	-2434.346687	-457.625849	137.559892	170.626290	8.864804	7.334640	13.416083	-21.483640	
6.9000	-42.124823	-3.643505	1.911785	-113.075350	868.531160	-3.675359	7.470494	-45.000000	44.677012	-45.000000	-13.269393	3503.061678	-2270.128000	149.040124	-102.658945	19.027227	84.063940	16.511685	3.518494	16.702117	42.595330	-44.611065	-44.999281	-32.232386	-2434.701259	-457.898745	137.461247	171.164208	8.718349	6.245956	13.679194	-21.271002	
6.9100	-42.067361	-3.720258	1.943994	-109.744763	864.759144	-3.421410	7.406205	-45.000000	44.776351	-45.000000	-13.093435	3503.320373	-2270.515495	149.094706	-103.232608	18.887561	83.022471	16.600416	3.641470	16.838290	42.680704	-44.674133	-44.998713	-32.243496	-2435.075100	-458.169756	137.345097	171.754791	8.570720	5.373844	13.907276	-21.066293	
6.9200	-42.005490	-3.817706	1.992558	-106.474459	860.896967	-3.151026	7.348257	-45.000000	44.856984	-45.000000	-13.001266	3503.600297	-2270.903889	149.148630	-103.833776	18.720730	81.712547	16.712536	3.784034	16.972866	42.754064	-44.720972	-44.997693	-32.316296	-2435.466584	-458.434495	137.211377	172.394579	8.422438	4.690912	14.107974	-20.868385	
6.9300	-41.940021	-3.928642	2.053671	-103.268920	856.966842	-2.860957	7.294539	-45.000000	44.916997	-45.000000	-12.979862	3503.897299	-2271.292683	149.203096	-104.453862	18.526177	80.127088	16.847150	3.948471	17.114982	42.814765	-44.758221	-44.995872	-32.447148	-2435.875013	-458.691080	137.061410	173.082205	8.272471	4.161006	14.286060	-20.674996	
6.9400	-41.873154	-4.039950	2.116777	-100.131747	852.991511	-2.547049	7.245689	-45.000000	44.956946	-45.000000	-12.998148	3504.200565	-2271.690690	149.257309	-105.068075	18.296347	78.242226	16.995845	4.137742	17.257628	42.861221	-44.788469	-44.992593	-32.614271	-2436.303537	-458.933732	136.900403	173.822512	8.122577	3.753744	14.458759	-20.481903	
6.9500	-41.804673	-4.157304	2.185448	-97.065730	848.993771	-2.204648	7.201347	-45.000000	44.980328	-45.000000	-13.069398	3504.514649	-2272.088913	149.312865	-105.675126	18.031110	76.045759	17.161114	4.356058	17.407421	42.894887	-44.814302	-44.986769	-32.822146	-2436.741928	-459.163133	136.723463	174.597450	7.969489	3.451519	14.618775	-20.289973	
